<svg xmlns="http://www.w3.org/2000/svg" width="20" height="19" viewBox="0 0 20 19" fill="none"><g clip-path="url(#clip0_188_1484)"><path fill-rule="evenodd" clip-rule="evenodd" d="M4.10276 1.53575C1.83186 2.44932 -0.014983 4.82626 0.26654 8.33725C0.477821 10.9722 1.93049 13.1153 3.64664 14.7279C5.36367 16.3412 7.39577 17.4739 8.89721 18.0966C9.41075 18.3095 9.98779 18.3219 10.512 18.1223C12.0881 17.5221 14.1129 16.3949 15.8125 14.7748C17.5105 13.1563 18.9254 11.004 19.1783 8.35972C19.6544 4.79448 17.7508 2.42314 15.4153 1.52878C13.4653 0.782019 11.0862 1.04962 9.7063 2.64136C8.31911 1.03756 6.02213 0.763589 4.10276 1.53575ZM4.59785 2.76642C6.37434 2.05175 8.28816 2.53025 9.1221 4.13032C9.23724 4.35131 9.46656 4.48909 9.71577 4.487C9.96498 4.48493 10.192 4.34333 10.3035 4.12045C11.0791 2.56964 13.0744 2.05275 14.941 2.76758C16.7373 3.45545 18.2576 5.26658 17.8619 8.19549C17.8607 8.20434 17.8596 8.21327 17.8588 8.22211C17.6487 10.4557 16.4499 12.3346 14.8972 13.8147C13.3432 15.2959 11.4761 16.3357 10.0401 16.8826C9.8371 16.9598 9.61062 16.9563 9.40536 16.8713C8.01666 16.2954 6.13049 15.2415 4.55499 13.7611C2.9786 12.28 1.76454 10.4225 1.58883 8.23122C1.35374 5.29932 2.86493 3.46358 4.59785 2.76642Z" fill="currentColor"></path></g></svg>