<svg xmlns="http://www.w3.org/2000/svg" width="18" height="21" viewBox="0 0 18 21" fill="none"><path d="M3.50856 19.643H13.6343C15.4114 19.643 16.8571 18.1972 16.8571 16.4201V6.78582C16.8571 6.47153 16.6 6.21439 16.2857 6.21439H12.8571V5.35725C12.8571 2.99439 10.9343 1.07153 8.57142 1.07153C6.20856 1.07153 4.2857 2.99439 4.2857 5.35725V6.21439H0.857134C0.542848 6.21439 0.285706 6.47153 0.285706 6.78582V16.4201C0.285706 18.1972 1.73142 19.643 3.50856 19.643ZM5.42856 5.35725C5.42856 3.62296 6.83713 2.21439 8.57142 2.21439C10.3057 2.21439 11.7143 3.62296 11.7143 5.35725V6.21439H5.42856V5.35725ZM1.42856 7.35725H4.2857V8.78582C4.2857 9.1001 4.54285 9.35725 4.85713 9.35725C5.17142 9.35725 5.42856 9.1001 5.42856 8.78582V7.35725H11.7143V8.78582C11.7143 9.1001 11.9714 9.35725 12.2857 9.35725C12.6 9.35725 12.8571 9.1001 12.8571 8.78582V7.35725H15.7143V16.4201C15.7143 17.5658 14.78 18.5001 13.6343 18.5001H3.50856C2.36285 18.5001 1.42856 17.5658 1.42856 16.4201V7.35725Z" fill="currentColor"></path></svg>